<?xml version="1.0" standalone="no"?>
<!DOCTYPE svg PUBLIC "-//W3C//DTD SVG 20010904//EN"
 "http://www.w3.org/TR/2001/REC-SVG-20010904/DTD/svg10.dtd">
<svg version="1.0" xmlns="http://www.w3.org/2000/svg"
 width="512.000000pt" height="512.000000pt" viewBox="0 0 512.000000 512.000000"
 preserveAspectRatio="xMidYMid meet">
<metadata>
Created by potrace 1.14, written by Peter Selinger 2001-2017
</metadata>
<g transform="translate(0.000000,512.000000) scale(0.100000,-0.100000)"
fill="#000000" stroke="none">
<path d="M815 5099 c-108 -37 -175 -101 -227 -214 l-23 -50 -3 -1092 -2 -1093
-228 0 c-255 0 -279 -5 -314 -71 -17 -32 -18 -77 -18 -804 0 -727 1 -772 18
-804 35 -66 59 -71 314 -71 l227 0 3 -307 c3 -297 4 -310 26 -358 53 -115 120
-177 230 -214 l62 -21 1723 2 1722 3 57 27 c79 37 142 98 181 177 l32 66 3
312 3 313 207 0 c233 0 259 6 294 71 17 32 18 77 18 804 0 727 -1 772 -18 804
-35 65 -61 71 -294 71 l-208 0 -1 403 c-1 221 -4 446 -8 500 l-6 98 -879 734
-879 735 -976 0 c-959 -1 -977 -1 -1036 -21z m1993 -758 c1 -493 5 -698 13
-708 9 -11 159 -13 845 -13 655 0 835 -3 841 -12 4 -7 9 -226 11 -485 l4 -473
-1941 0 -1941 0 2 1088 3 1087 24 48 c31 62 110 133 170 151 39 12 198 14
1006 13 l960 -2 3 -694z m-906 -2189 c59 -26 120 -87 153 -151 14 -28 25 -54
25 -59 0 -8 -208 -58 -213 -51 -2 2 -13 21 -26 41 -55 91 -205 83 -258 -14
-27 -50 -26 -259 2 -307 29 -49 79 -73 138 -68 63 5 96 30 127 95 14 29 31 52
40 51 8 0 56 -13 105 -28 83 -25 90 -30 87 -52 -5 -44 -56 -131 -100 -170 -67
-59 -136 -80 -259 -80 -160 0 -228 25 -311 115 -76 83 -95 143 -96 291 -1 91
3 132 17 171 39 113 116 189 226 225 79 27 275 21 343 -9z m829 -3 c33 -16 67
-41 83 -62 30 -39 61 -127 49 -138 -5 -3 -56 -9 -116 -12 l-107 -6 -14 33
c-20 47 -51 66 -110 66 -56 0 -86 -20 -86 -56 0 -33 29 -48 162 -83 137 -35
203 -66 247 -116 42 -48 53 -78 53 -146 0 -101 -55 -189 -146 -234 -98 -48
-319 -51 -420 -6 -74 32 -139 120 -153 204 -7 43 -3 44 130 49 l99 3 13 -38
c17 -50 39 -74 81 -87 78 -26 158 17 152 81 -4 45 -45 71 -157 99 -155 38
-252 98 -280 173 -16 43 -13 117 8 163 10 22 37 56 60 76 62 53 123 68 271 65
111 -2 131 -5 181 -28z m558 -261 c47 -153 89 -278 92 -278 3 0 44 125 91 278
l85 277 126 3 127 3 -33 -89 c-17 -49 -84 -229 -147 -400 l-115 -312 -136 0
-136 0 -133 353 c-73 193 -141 374 -151 400 l-19 48 131 -3 131 -3 87 -277z
m1231 -1279 c0 -188 -4 -305 -11 -329 -18 -59 -78 -130 -139 -164 l-55 -31
-1710 -3 c-1491 -2 -1716 0 -1760 13 -65 19 -137 81 -173 149 l-27 51 -3 303
-3 302 1940 0 1941 0 0 -291z"/>
<path d="M887 4553 c-13 -12 -7 -41 9 -47 9 -3 305 -6 659 -6 564 0 645 2 659
15 8 9 13 22 10 30 -5 13 -95 15 -668 15 -365 0 -666 -3 -669 -7z"/>
<path d="M887 4413 c-4 -3 -7 -15 -7 -25 0 -17 27 -18 669 -18 526 0 670 3
673 13 14 37 17 37 -666 37 -365 0 -666 -3 -669 -7z"/>
<path d="M882 4258 l3 -23 664 -3 c498 -1 667 1 672 10 24 38 22 38 -673 38
l-669 0 3 -22z"/>
<path d="M892 4141 c-8 -5 -12 -17 -10 -27 3 -18 26 -19 670 -22 580 -2 667 0
671 13 4 8 -1 21 -9 30 -14 13 -95 15 -662 15 -356 0 -653 -4 -660 -9z"/>
<path d="M892 4001 c-8 -5 -12 -17 -10 -27 3 -18 26 -19 668 -22 695 -2 692
-2 669 40 -9 17 -43 18 -662 18 -359 0 -658 -4 -665 -9z"/>
<path d="M884 3855 c-4 -8 -4 -22 0 -30 5 -13 85 -15 668 -13 l663 3 0 25 0
25 -663 3 c-583 2 -663 0 -668 -13z"/>
<path d="M1724 515 c-4 -8 -1 -22 6 -30 19 -23 1641 -23 1660 0 7 8 10 22 6
30 -5 13 -104 15 -836 15 -732 0 -831 -2 -836 -15z"/>
<path d="M1584 385 c-4 -8 -4 -22 0 -30 5 -13 120 -15 978 -13 l973 3 0 25 0
25 -973 3 c-858 2 -973 0 -978 -13z"/>
</g>
</svg>
